# xmcd
#
# Track frame offsets:
#	150
#	18503
#	35985
#	54641
#	78969
#	91890
#	118626
#	134048
#	151067
#	166030
#	188802
#	215461
#
# Disc length: 3160 seconds
# Revision: 2
# Processed by: cddbd v1.5.2PL0 Copyright (c) Steve Scherf et al.
# Submitted via: dBpowerAMP V12.0
#
DISCID=9c0c560c
DTITLE=Duke Robillard Band - Independently Blue
DYEAR=2013
DGENRE=Blues
TTITLE0=I Wouldn't-a Done That
TTITLE1=Below Zero
TTITLE2=Stapled to the Chicken's Back
TTITLE3=Patrol Wagon Blues
TTITLE4=Laurene
TTITLE5=Moongate
TTITLE6=I'm Still Laughing
TTITLE7=Strollin With Lowell and BB
TTITLE8=You Won't Ever
TTITLE9=This Man, This Monster
TTITLE10=Groovin' Slow
TTITLE11=If This Is Love
EXTD=
EXTT0=
EXTT1=
EXTT2=
EXTT3=
EXTT4=
EXTT5=
EXTT6=
EXTT7=
EXTT8=
EXTT9=
EXTT10=
EXTT11=
PLAYORDER=
